<?xml version="1.0" encoding="UTF-8"?>
<svg version="1.1" viewBox="0 0 1181 1181" width="1181" height="1181" xmlns="http://www.w3.org/2000/svg">
<path transform="translate(0)" d="m0 0h1181v1181h-1181z" fill="#111827"/>
<path transform="translate(190,787)" d="m0 0h801v2l6-1v2l4-1 4 2 3 1 2 2 4 2 4 4 6 5 6 10 2 7-1 2h2l-1 5h2v14l-1 4v2h-2l1 4-6 12-5 6h-2l-2 4-8 6-12 4-6 1h-804v-2l-5 1-14-7-2-2-7-6-1-3-4-4v-2l-3-3 1-3-2-1 1-2-2-1 1-2h-2l1-6h-2v-13h2l-1-6h2l-1-3h2l-1-3 3-6 3-4 5-5 5-6 3-1 3-3 3-1 4-2 2 1 1-2 5-1 3 1z" fill="#FEFEFE"/>
<path transform="translate(189,541)" d="m0 0h803l3 1h3v2l3-1v2l3-1 6 3 2 2 5 4 7 6 6 10 2 7-1 2h2l-1 5h2v14l-1 4v2h-2l1 4-5 10-6 8h-2l-2 4-8 6-12 4-6 1h-802l-3-1h-3v-2l-3 1v-2l-3 1-10-6-7-8-4-4-5-7-1-4 1-2-2-1 1-2h-2v-6l-1-1v-12h2l-1-6h2l-1-3h2l-1-3 3-6 3-4 5-5 6-7h2l2-2 6-4 3 1 1-2 2 1v-2h5z" fill="#FEFEFE"/>
<path transform="translate(189,295)" d="m0 0h803l3 1h3v2l3-1v2l3-1 6 3 2 2 5 4 7 6 6 10 2 7-1 2h2l-1 5h2v14l-1 4v2h-2l1 4-5 10-6 8-9 8-7 3-5 2-2-1v2l-5-1v2h-804l-3-1h-3v-2l-3 1v-2l-3 1-10-6-7-8-4-4-5-7-1-4 1-2-2-1 1-2h-2v-6l-1-1v-12h2l-1-6h2l-1-3h2l-1-3 3-6 3-4 5-5 6-7h2l2-2 6-4 3 1 1-2 2 1v-2h5z" fill="#FEFEFE"/>
</svg>
